
<global>
amp_veltrack=0
ampeg_release=0.35
</global>

<group>
group_label=Group_0-42
lpc_hicc1=42
lpc_locc1=0

<region>
hikey=B2
hivel=127
lokey=A#2
lovel=1
lpc=jegFQ8jtksN2TSNDM54FwcK4ZUKWGlPCm1frwMa7tsCV+65A0wgdQQS5U0E8PA7B+JgpwsMNXkI+MVjBIXwxwHaEYcGiESJB5zePQVu/o8E5vnu+YvSkQFdZd8AAlixA
lpc_rms=-39.56
pitch_keycenter=A#2
sample=Solocello_tenuto_eighth_PP_A#2.opus
</region>

<region>
hikey=B3
hivel=127
lokey=A#3
lovel=1
lpc=O4uaQoW1M8NokP1CfqUPwmEUN0J4IT/CpkCcQfTZacFg70NBMkuHwfUQGkIF39nB8u+gwegGFUI6LM3B6q6YQcGUF8Eo7h/A5VwYQTYcmsDflHDA/N1UQZq5tsExHElB
lpc_rms=-40.93
pitch_keycenter=A#3
sample=Solocello_tenuto_eighth_PP_A#3.opus
</region>

<region>
hikey=B4
hivel=127
lokey=A#4
lovel=1
lpc=zD4fQU3zwsHCPs5BP0OTwby+WEG63iTB6FncQHQ4SsDCt4q9t0cNP4W+2T4LXw9AirbWwKzJtUDeE5S/uD3NvhuUf794jP0/6o/0vrbxGz2EsNa/2Mf2P+cXYb/d1OQ+
lpc_rms=-52.47
pitch_keycenter=A#4
sample=Solocello_tenuto_eighth_PP_A#4.opus
</region>

<region>
hikey=C#2
hivel=127
lokey=C2
lovel=1
lpc=6bHQQkEXb8NtDhRDnoSEwYg6OEK7pj7CCMMawSjKWUFPgKJAEft0wXBp1EF8HWrBCTt2wcQznUGBYu+/Q7t/P7+x4sDVigZBj3SrvwA1WsGt8GRB7PF1wMV3osCkDY9A
lpc_rms=-42.42
pitch_keycenter=C2
sample=Solocello_tenuto_eighth_PP_C2.opus
</region>

<region>
hikey=C#3
hivel=127
lokey=C3
lovel=1
lpc=44SFQrNGCsOAxJRCe3hGwe2g7kEfEIzBXnsSwcZk5UAXtPy+u4oXwUnao0H7I+jAuAhpwXgQWEGv71PAe3pxwIYNBEEVKYu/n4yFv/+tocBCfzZA/hvNQAIgScEgjNJA
lpc_rms=-43.66
pitch_keycenter=C3
sample=Solocello_tenuto_eighth_PP_C3.opus
</region>

<region>
hikey=C#4
hivel=127
lokey=C4
lovel=1
lpc=RsAqQoXzzMJIXJ1C9eiuwXbIaEGqmJzBDj1QQeX+IsEAIxFBXNw4wey8nEG2UXnByLqywNrVpEEchITBNuVEQYu6TcEWfAxBTzADwGV7o8BVnU5A9XQZQcd2S8GSt4pA
lpc_rms=-44.48
sample=Solocello_tenuto_eighth_PP_C4.opus
</region>

<region>
hikey=C#5
hivel=127
lokey=C5
lovel=1
lpc=odKZQRTPOcJmhztCcT0Iwif/8UGoz+bBq1a8QU7mg8FrhjxB0yDbwMxMLEBY8uC/uAlHvwe6REBbE0m+oN6Jv0mqk8Bs09lAxHk5v4n9IcCmbY5AFijHwBs9bkCEhem+
lpc_rms=-45.07
pitch_keycenter=C5
sample=Solocello_tenuto_eighth_PP_C5.opus
</region>

<region>
hikey=D#2
hivel=127
lokey=D2
lovel=1
lpc=jYteQtc/58JTJXRCjyAjwdXJCELGr77BwlAYwXQErECKYFdAV+IZwGI34UA2t5u/Dad9waq8bUFqwaRAejvIwLy8/MC5FtBAfCaFQLb2gcDXexG9FLp6P5xQysC4iaZA
lpc_rms=-48.62
pitch_keycenter=D2
sample=Solocello_tenuto_eighth_PP_D2.opus
</region>

<region>
hikey=D#3
hivel=127
lokey=D3
lovel=1
lpc=ptqQQtxdIcPTycdC+gFvwZ3W2UFSeaTB+LGZwXnelEGxLFVAzz5SweAboUEM8zzBOgx2wQhT00EjLZ3Bp0lWQYVl7b/Q2hDBpom9QPkOYT8TF2ZAQPZ3wCprtMAJqJ9A
lpc_rms=-41.06
pitch_keycenter=D3
sample=Solocello_tenuto_eighth_PP_D3.opus
</region>

<region>
hikey=D#4
hivel=127
lokey=D4
lovel=1
lpc=B5zFQSmGdMI/OGBCU2TZwZdLnEH+NZLBNTprQOycIUGOWFbBmpHEQKvEO0CQpFnAb4iav6XTCUAUZJM+XojOvs4risBf5NJARuIbwGmEv75U20g/skSEwNclx0DxxxrA
lpc_rms=-50.93
pitch_keycenter=D4
sample=Solocello_tenuto_eighth_PP_D4.opus
</region>

<region>
hikey=D#5
hivel=127
lokey=D5
lovel=1
lpc=/CccQUJjuMGNZMRB5/CJwboAVUG/xRrBxxCfQNGfTMDGDFxA0hAnwPeflz9DQzw+bgKyvwi09D+7O4C/FQUeP90Htb9i6FI/JtHIPyqdz78ExCZAsSZ2wCsDGUDwv5w9
lpc_rms=-52.00
pitch_keycenter=D5
sample=Solocello_tenuto_eighth_PP_D5.opus
</region>

<region>
hikey=F2
hivel=127
lokey=E2
lovel=1
lpc=RkELQ5X6ksM4ICFD6UL2weSoqULMrWHCzDDIwQTYf0H7PUu/aPgJQeg1G0ED5FTBP2fEwW/jIUIjTsfASYsrwKsVj8G7rERBhFstQYVGT8GcuiBAEbJ8wCW2p8AvYQlB
lpc_rms=-39.36
pitch_keycenter=E2
sample=Solocello_tenuto_eighth_PP_E2.opus
</region>

<region>
hikey=F3
hivel=127
lokey=E3
lovel=1
lpc=FT/XQgRLgMNDzjZD43cawnBMV0K4pYbCSXQMwTRaJUKFmHjBaeH7wA8dD0JoSh3CEuBUwfseb0LY4yHCxqqSwN7KBUEaDHhBZp1AwJW9q8HETkdBOY45QfAFyMGgl1FB
lpc_rms=-39.20
pitch_keycenter=E3
sample=Solocello_tenuto_eighth_PP_E3.opus
</region>

<region>
hikey=F4
hivel=127
lokey=E4
lovel=1
lpc=0lKHQrJAN8Pb+jlD4aXLwgqfi0Ku9obCNgHDQTeCmkERQ7HByQFrQRztB8EYf4k/rko9wcMUBkK009XBkGqnQOGxH8Fep8xBlCmXwX6wb7+3DZc+A9szQYuv8MDa83Q/
lpc_rms=-39.05
pitch_keycenter=E4
sample=Solocello_tenuto_eighth_PP_E4.opus
</region>

<region>
hikey=F5
hivel=127
lokey=E5
lovel=1
lpc=n1sIQucqgMLn+2lCgoIswroiBkKH98/B0/2hQSJvScF6dPU/cmCGQFk+EUClmDrAIFmTQKxLiL5uLQfA6oDivumCob/oPUtAToASQL5FCMFGsNVAo+j1v1OwtkCoC4S/
lpc_rms=-44.41
pitch_keycenter=E5
sample=Solocello_tenuto_eighth_PP_E5.opus
</region>

<region>
hikey=G2
hivel=127
lokey=F#2
lovel=1
lpc=awY+Q85BwcNI3TRD3NWmwZrI9UJUuKjCPBBCwXwQQsHtyGVB2akzQTLin0HAWkrBJp9iwlj3gEJkTTHBfdxxQZslJcIerMdBZtxoQGlDL8EIksbA4uulQFdRocDEC/ZA
lpc_rms=-34.28
pitch_keycenter=F#2
sample=Solocello_tenuto_eighth_PP_F#2.opus
</region>

<region>
hikey=G3
hivel=127
lokey=F#3
lovel=1
lpc=StWQQhMdNMNCJgpDhiEHwv27J0IOr2fCJCbfv5nW40FLmcM/o/eEwT4un0Edt07BK8l1wSpT7UETiHDBHC7YP4VlgcBiU/dA+QXLQMNUtsF4CI1BVtxYwKL308C2J6RA
lpc_rms=-39.58
pitch_keycenter=F#3
sample=Solocello_tenuto_eighth_PP_F#3.opus
</region>

<region>
hikey=G4
hivel=127
lokey=F#4
lovel=1
lpc=RcfkQf3insKZ1KpCf8hBwgIo3UGCDM/BgH+IQWv82MBxfyFA5oVPQC34YsAq2hLA5KKTwKp8jkGkCFbBgCB2vWKgl7902OtAnJmOv3RygMB6xxq/bpiLQBbIKcDQoPE+
lpc_rms=-41.01
pitch_keycenter=F#4
sample=Solocello_tenuto_eighth_PP_F#4.opus
</region>

<region>
hikey=B6
hivel=127
lokey=F#5
lovel=1
lpc=N2KcQUTrJMLQLx5CsmTNwbPMqUGRMpPB8bZLQSyD3cDgLghAGzgFQKDw7j9N5NG/UhwTwOHIYECjDLu/MbYFQGUeQsBzVJVAvdDXwPkLA0HlJpXAyM/eQOiCDsENL6lA
lpc_rms=-44.68
pitch_keycenter=F#5
sample=Solocello_tenuto_eighth_PP_F#5.opus
</region>

<region>
hikey=A2
hivel=127
lokey=G#2
lovel=1
lpc=yE9iQwzF98MfropDDYE6wvtIEkNlpMDCERBfwsIVzkFuYqpB3Vr4wKU4HkLXKQ7ClZE6woIUkEI12AHBpxkPwY0MmMFH7odB/BMNQaHiIsFPRsjBtFsXQrr8AcJEFX5B
lpc_rms=-35.67
pitch_keycenter=G#2
sample=Solocello_tenuto_eighth_PP_G#2.opus
</region>

<region>
hikey=A3
hivel=127
lokey=G#3
lovel=1
lpc=7i+JQsL5I8O3dehC0rDAwWOmBkIdNzzCSnfFQVTElsGoAHRBkvh4weRl3UGmCaDBhPMOwTsv00FtN6HB901BQciFy8CbSN7A6mU9QfJD+b/BnCDBsiueQavGlsE48dtA
lpc_rms=-40.41
pitch_keycenter=G#3
sample=Solocello_tenuto_eighth_PP_G#3.opus
</region>

<region>
hikey=A4
hivel=127
lokey=G#4
lovel=1
lpc=TM2xQU6Ga8Ly4YFC79A+wsGaDkLkst3BmXiUQeA2OcEmmxtB31TOwNEhmUANO8fAeDZHvwFiMEGbWlHB+GHaQELixz5fEgBAFGAEwTHoDkHlx7rAoJqkQNqAxsCinEtA
lpc_rms=-46.12
pitch_keycenter=G#4
sample=Solocello_tenuto_eighth_PP_G#4.opus
</region>
</group>

<group>
group_label=Group_43-84
lpc_hicc1=84
lpc_locc1=43

<region>
hikey=B2
hivel=127
lokey=A#2
lovel=1
lpc=YyfjQvOngMO97RVDhhALwWQMbkIuIbHCYnYXQpGAosDWnUBAH3V/wUcjvEFsAKrBRfoAwEMwzUHpy3Y+TR9qwansMsGl7WtBkeIrwayUHUFUS5c/OMinwMFnFkBgyti+
lpc_rms=-32.56
pitch_keycenter=A#2
sample=Solocello_tenuto_eighth_MF_A#2.opus
</region>

<region>
hikey=B3
hivel=127
lokey=A#3
lovel=1
lpc=pyxXQron68KEM41CKTvpwIhTSUGH003BzBgdv0OpYb97rO5Ahen4wJ/ALEA5WNW/geD6vuyuIUHqp3jBfhEtQTjduMAz8/5ATpM9wfzxOUG+VRa/UqWZwBL5zsCsS95A
lpc_rms=-38.09
pitch_keycenter=A#3
sample=Solocello_tenuto_eighth_MF_A#3.opus
</region>

<region>
hikey=B4
hivel=127
lokey=A#4
lovel=1
lpc=kzADQTEglsEOHIhBaxEOwRldw0ClkqrAqiReQFUGKsDkFtE/joGZvdz7pD9wFra/yAnJv2vuVkBqtynA0nYKQP7ZJsDWzhxApqWbv/LhMT9UTQm/9+JkvduE/D6h3YS+
lpc_rms=-43.41
pitch_keycenter=A#4
sample=Solocello_tenuto_eighth_MF_A#4.opus
</region>

<region>
hikey=C#2
hivel=127
lokey=C2
lovel=1
lpc=RV11Qqs/EsPzWNJCb31WwcOP0D/BL57B/AWUQXw44MCdO2HABRX4PyBbC8C4trZAcBLbwPTTbkH/W9nAhs7rwPViPb9WJhpBu2iJwOcFJL8QU6O/AoGIQEJZyMAJy15A
lpc_rms=-47.71
pitch_keycenter=C2
sample=Solocello_tenuto_eighth_MF_C2.opus
</region>

<region>
hikey=C#3
hivel=127
lokey=C3
lovel=1
lpc=q39uQlHK6sKqN0ZC5AS5P0cSA0JWierBbqFdQM/THMBQrNU+IRHTv+96mECAoJ/Ab0NSQOhoB0GEfSTA9tUewcI2IT+yle1AObBdwO02RD+UnwdA3ZFYwLHPSMBxLHhA
lpc_rms=-37.42
pitch_keycenter=C3
sample=Solocello_tenuto_eighth_MF_C3.opus
</region>

<region>
hikey=C#4
hivel=127
lokey=C4
lovel=1
lpc=P8KZQpzgOMMoPwxDZZkbwrvo0kGpJa7B32nBvzmznMDMSZhBK29lwR720kAiJqzAyY9wwMEgNkHglr5ARdyNwQpLk8BAY6lBbE5ywbo+hkEQHJvBl0iSQeKjj8HhJwFB
lpc_rms=-34.91
sample=Solocello_tenuto_eighth_MF_C4.opus
</region>

<region>
hikey=C#5
hivel=127
lokey=C5
lovel=1
lpc=J/e0QbmZYcI7K11CdoUFwvDXyEEska/BB7qHQaROWcGkxQhBVB4LwKsuSr8xaoFAbb0ewb/BPkGq+wHBJmEWQI7fiD+zzR6//McFPW5Kc0CVqw7BmckIQfikisCSvrc/
lpc_rms=-37.49
pitch_keycenter=C5
sample=Solocello_tenuto_eighth_MF_C5.opus
</region>

<region>
hikey=D#2
hivel=127
lokey=D2
lovel=1
lpc=kiaJQvyBFMNtCKhCRGE0wZ5tLEIUnz/C+uUyQXgsH8BQ8cNAbgBDwUtmBkFMzudAwf8ZwQ5JLEEXvxnB8C0ZQeqoeMFqz1ZBiTY8wZe/BUEDWnk+BtPtQOlMpsEpHjhB
lpc_rms=-39.89
pitch_keycenter=D2
sample=Solocello_tenuto_eighth_MF_D2.opus
</region>

<region>
hikey=D#3
hivel=127
lokey=D3
lovel=1
lpc=jDU1QldrzcKZfYVCM7YBwc4VWkGeb6DBPN9YvqX7KUECY/7AvutgwO2xVEE/eKrAaloWwcB9MkE+RKK+NWCDwB/Aiz8R6QhAqAGSwAVUMUCXBXi/NOZsQIviv8CcQz1A
lpc_rms=-41.78
pitch_keycenter=D3
sample=Solocello_tenuto_eighth_MF_D3.opus
</region>

<region>
hikey=D#4
hivel=127
lokey=D4
lovel=1
lpc=WLViQScJE8LkxRZCG6WywdJbaEE5VDjBuYbPQHRBXMDW9d4/j7rLvBnyYD82eNS/xyVzv2OPXkDMUATAbxr4vlVR8L087DNADfiNwBIUfkC3HS/AEulTQDMoV8DIGKI/
lpc_rms=-47.31
pitch_keycenter=D4
sample=Solocello_tenuto_eighth_MF_D4.opus
</region>

<region>
hikey=D#5
hivel=127
lokey=D5
lovel=1
lpc=RDtRQctCysGuV6dBoNxOwXjbLEGwDADBeLTkQPPQAsFPpMVAHadQwKxTS0Dv4FvAhcB5PzmD4j9orIjAeUiqQKoJH8BYKs4/Z0HVv/tiID/llu4/BRn+v/ql7j99cRq/
lpc_rms=-43.03
pitch_keycenter=D5
sample=Solocello_tenuto_eighth_MF_D5.opus
</region>

<region>
hikey=F2
hivel=127
lokey=E2
lovel=1
lpc=jcOgQmqgOsOVAvVCus8HwRtwD0H+1PPBLCfBQWJeD8E8GQzBC5qIQFepFMHbUttBoFTEwcYS50GwO9LBxkFdQXKMpsEXMLRB2nUowSh0JsCFjRhBuAsYQNr8jcGSxyhB
lpc_rms=-42.17
pitch_keycenter=E2
sample=Solocello_tenuto_eighth_MF_E2.opus
</region>

<region>
hikey=F3
hivel=127
lokey=E3
lovel=1
lpc=lzmbQgSRKMOASbRCcG8AQc/SfkHdfb/BSA7xwD2dj8D+0axBMnXFwCRwED/euUTAfmZnwbPAzEECQLnAzdf6wNb0wj+wfT++M4mBQBanA0ChyazB1L4FQt7uzsFH9RNB
lpc_rms=-33.76
pitch_keycenter=E3
sample=Solocello_tenuto_eighth_MF_E3.opus
</region>

<region>
hikey=F4
hivel=127
lokey=E4
lovel=1
lpc=yVG5QWXeasJsWWxCb4wfwro+BkLn8djBAQVQQQn/8b+wnK7AhIbfQAvjRcBYhIs/QzBgvzZgbECie7rAylRFQFKYd8A3TARBBejRwDgQOkDaLzbAEKQyQECx0L/yPhY/
lpc_rms=-40.38
pitch_keycenter=E4
sample=Solocello_tenuto_eighth_MF_E4.opus
</region>

<region>
hikey=F5
hivel=127
lokey=E5
lovel=1
lpc=2gzTQbW8TMII8yVCrP7gwWxA20F2LZzBI58nQRyb2MANhq9A2+a8v4Vs5UBbexTBz7GUwIFfbUERkVHBAvpBQTKyGsHQMR9BIZz2wCUOq0BazzS/WkvWv8oKrMD0K/xA
lpc_rms=-38.95
pitch_keycenter=E5
sample=Solocello_tenuto_eighth_MF_E5.opus
</region>

<region>
hikey=G2
hivel=127
lokey=F#2
lovel=1
lpc=CmkJQ1Dgj8Oo5g1DPYdAwKJ4lEIqHKPCKimfQTTGnkApv+7AotOZwb7aY0GIVh9Baj+yv6i4KUHSDQ3AKoRYweU7E8GHnahBftVUwcAFvD7HXLJAx+HhQMaPhcEYVwVB
lpc_rms=-33.88
pitch_keycenter=F#2
sample=Solocello_tenuto_eighth_MF_F#2.opus
</region>

<region>
hikey=G3
hivel=127
lokey=F#3
lovel=1
lpc=I7GSQjmMK8NSKPtC1IIUwni4DEIWEvbBvnVcwOU9WEGi5o7A9DtRQOLc8sAgNI6/7yzSv4JZr0GgVH/Bwe/8v8rTe0B2BkzASzEKQeREWMFHE1e/qDGNQYIwOsGVXAZA
lpc_rms=-37.27
pitch_keycenter=F#3
sample=Solocello_tenuto_eighth_MF_F#3.opus
</region>

<region>
hikey=G4
hivel=127
lokey=F#4
lovel=1
lpc=EjtGQS7R6cGXlNBBg3xtwRgFXEH30mTB+9MwQadC9cDQGpdAw6/Ev/c60jwLYgm/hRsBv9aHNkC70xC/bCIzwCy/k78qfahAu7IXwG1pgL0O7Ee/bxkePyVOxD6lDW6+
lpc_rms=-44.72
pitch_keycenter=F#4
sample=Solocello_tenuto_eighth_MF_F#4.opus
</region>

<region>
end=42404
hikey=B6
hivel=127
lokey=F#5
lovel=1
lpc=78VSQT8cwMEcCqNBwuo/wdjUD0GE9evA/uACQT43AsF07bpA0UZlv96exL4uoLe9bK16P8hFyj8UibS/3VPLPWi1Ob8DlAJA28RBP2sDib7X1Nq/z1oYQK+mcL+lJr4/
lpc_rms=-40.58
pitch_keycenter=F#5
sample=Solocello_tenuto_eighth_MF_F#5.opus
</region>

<region>
hikey=A2
hivel=127
lokey=G#2
lovel=1
lpc=a676QnAihcMk7ANDM3HoQEgNREJky2fC9iASQY9tFkBDfBzAYr8uweqgFEENnvVALGc0wZXRz0GgbdHAoQyvwTxB2j9VaBxB21lEPr530cDRLBVBotKoP2OKgMG8/BxB
lpc_rms=-32.06
pitch_keycenter=G#2
sample=Solocello_tenuto_eighth_MF_G#2.opus
</region>

<region>
hikey=A3
hivel=127
lokey=G#3
lovel=1
lpc=UMhzQmKOCcP18ahC6VJ7v7oxDb8Vg57Als/Lv5NFK8C97TRAYoT6vyXbRkDoKPU+Us0twOX++UB7CGnAzGgUwUm4x0BBrhC+iiAvQD90G8AoDtnA9hN7Qf+qTMF034FA
lpc_rms=-36.66
pitch_keycenter=G#3
sample=Solocello_tenuto_eighth_MF_G#3.opus
</region>

<region>
hikey=A4
hivel=127
lokey=G#4
lovel=1
lpc=Xb6dQZ67O8KHJDBCH73pwZzmzUHfk7/BiXSQQTsWQ8GB3xJBCKObwBspzb4azohAjKGswJt9dEAIWsHA4+3jQPvEAcC6yH9APSUnwd2rHkFAw63AXEc6QGLdQcBuePA/
lpc_rms=-41.37
pitch_keycenter=G#4
sample=Solocello_tenuto_eighth_MF_G#4.opus
</region>
</group>

<group>
group_label=Group_85-127
lpc_hicc1=127
lpc_locc1=85

<region>
hikey=B2
hivel=127
lokey=A#2
lovel=1
lpc=u1duQqf+DMMPmORC1pZRwtx5LEI3mQ/Cx22JQfKTOsF0iHtBOvqNwfgDgEEDeNLAzCaCwQ4G6UErq1vBuASPv4VuF79D4ZRAdyj8P3xsncD+697AXHNUQbiP2MBNeX8/
lpc_rms=-20.94
pitch_keycenter=A#2
sample=Solocello_tenuto_eighth_FF_A#2.opus
</region>

<region>
hikey=B3
hivel=127
lokey=A#3
lovel=1
lpc=W+sFQvulmsK7K3VChf/dwbmo0UEnKLfB8JgQQe5GfsChfn1A3TXfwMUDIkEOxDbAlj1JwVuonEGuAkTBX82MP7eREL3vh6hAdEvNv9mTksDwc41Acuawv/WStb53NM8+
lpc_rms=-21.97
pitch_keycenter=A#3
sample=Solocello_tenuto_eighth_FF_A#3.opus
</region>

<region>
hikey=B4
hivel=127
lokey=A#4
lovel=1
lpc=r0+HQC+8/8BZCdxAEgWWwGqZYkC8GirAqW8NQHfrzb9/76U/Vn6cv1TbIj94kwG+qwIVvuL35j6dm92+c50dPwxR/L5AA8I+kZq8vl3GpL7KXgU/f3lXvIhYOj1HJR89
lpc_rms=-32.39
pitch_keycenter=A#4
sample=Solocello_tenuto_eighth_FF_A#4.opus
</region>

<region>
hikey=C#2
hivel=127
lokey=C2
lovel=1
lpc=MImTQgsuPcNaxylDpDaZwko8UUL3Sy/CGLRXQQsf0MCntoVBEB2IwUUJjEF8J7bBJW0EQUEvAkE6MwRBBbaNwWY2v0CaCjnBXl72QbwaAsKQgpVBW0imwOdxXsChtkJA
lpc_rms=-21.79
pitch_keycenter=C2
sample=Solocello_tenuto_eighth_FF_C2.opus
</region>

<region>
hikey=C#3
hivel=127
lokey=C3
lovel=1
lpc=rWLPQVc4ccJIH0NC0N+8wSK9sEFfRaLBslYzQXxX/cCHYglBNSvLwKrCLECTYg1ASpFIwViqd0E775nAPJ/Gv3LLbb9o9QVAfklFPworIL9hRg/Af7cjQIgftL/ALrM+
lpc_rms=-27.97
pitch_keycenter=C3
sample=Solocello_tenuto_eighth_FF_C3.opus
</region>

<region>
hikey=C#4
hivel=127
lokey=C4
lovel=1
lpc=6hw/QSnK3MFiWcpBDn2DwWsSX0FrfDDBZiWyQBQkO8AhCfs/U85jPxaLv7+zUrg+BiIkwKJzpEBG2GHAz9Akva4m4z5VJAI/ZZnuP8WmU8Dtx90/0/yvv3KiyT/1MCK/
lpc_rms=-27.04
sample=Solocello_tenuto_eighth_FF_C4.opus
</region>

<region>
hikey=C#5
hivel=127
lokey=C5
lovel=1
lpc=BujRQOZqRMEVtSRBBQb3wKBo0ECbSoXAN8IRQKOXuL+5NP8/98YwwHCjKkBeAwHApIuVPglZYj95JIy+FzK5vv0o6D6k/w6/K07OP1vT1L+iKks/zcgBv2QtPz/5p0q9
lpc_rms=-28.15
pitch_keycenter=C5
sample=Solocello_tenuto_eighth_FF_C5.opus
</region>

<region>
hikey=D#2
hivel=127
lokey=D2
lovel=1
lpc=w1IsQuNs1sIjrLhChaAewp9N20FOcLPBA9W9QLTpl793em9AtE0bwPm7GUAOWanAnwgZQMqUDEA69RNAkiKhwBcCMT5CyIM+xIXjQBacDcG63XlAXlTDvzduEb+i05I/
lpc_rms=-27.03
pitch_keycenter=D2
sample=Solocello_tenuto_eighth_FF_D2.opus
</region>

<region>
hikey=D#3
hivel=127
lokey=D3
lovel=1
lpc=Pqj1QV1wjMIFIkxC5tmNwdlMoUGN4p7BHPK/QAOmM8BscfdAs4TkwKA1XEAWJ8e+jBEQwTIKaUEay5nAq4uxwMFbeUDRFXJAgdlQwNwgoL6npHXAsZbEQBIfE8AahVq9
lpc_rms=-26.14
pitch_keycenter=D3
sample=Solocello_tenuto_eighth_FF_D3.opus
</region>

<region>
hikey=D#4
hivel=127
lokey=D4
lovel=1
lpc=+SYcQcmMosHUZ4NB1zsgwUPaKEEphBTBIKLAQMbMwcDGAIRA2cgZvonLvD41CzvA5xzHPzd/5Tw7gLU/G7IwwORsvT8pE3G/BawSQPiK8792l5U/s07Xvx/z1D9hXpm+
lpc_rms=-28.36
pitch_keycenter=D4
sample=Solocello_tenuto_eighth_FF_D4.opus
</region>

<region>
hikey=D#5
hivel=127
lokey=D5
lovel=1
lpc=y8TAQGaTLMGNnApB4ea0wNhUtkCB4XbAzXkdQOqoEcBkrvU+c61bP05Gm75ikKk+pVqQv2yMoD/uWwW/DC8Zv0dbrj98xUW/7xdgP3+Cbb9tuKc/xzdtvyKz7D6r3NM+
lpc_rms=-29.22
pitch_keycenter=D5
sample=Solocello_tenuto_eighth_FF_D5.opus
</region>

<region>
hikey=F2
hivel=127
lokey=E2
lovel=1
lpc=ka+gQheFQ8NkSh5DSgp+wiF7TkIbvRDCv34rwKmDAkDvkAJBvPuRwFSsS0ELOqvBNhNSQUmYkcDaTQtB/jo3wYtfEUB2mwJADtBpQZtBmMFdWqtAOsQYwFOiFj/qe9A/
lpc_rms=-21.76
pitch_keycenter=E2
sample=Solocello_tenuto_eighth_FF_E2.opus
</region>

<region>
hikey=F3
hivel=127
lokey=E3
lovel=1
lpc=FApGQrJG7MJz8MJC83E0whAELEJXojzC6uXAQcasDsAMjQpBIfO6wco8dEGyHPU/e3Yzwfemk0G3E7DBail4QXyqDMEqK2hB+wdmwRNvqkB+ZprAN3X7QJwnAsHxdH9A
lpc_rms=-21.37
pitch_keycenter=E3
sample=Solocello_tenuto_eighth_FF_E3.opus
</region>

<region>
hikey=F4
hivel=127
lokey=E4
lovel=1
lpc=H+K9QZTnWsKP00ZCn6QGwrmc5kEkMqXBB/9MQeRRS8EhZCdBxKihwNsA7kDKzj/B/oXCQILqwT7WNZg99OIHwIrgij9gKGO+ERS+QGU098BzWI5AIQpgwOvFK0A010i/
lpc_rms=-20.27
pitch_keycenter=E4
sample=Solocello_tenuto_eighth_FF_E4.opus
</region>

<region>
hikey=F5
hivel=127
lokey=E5
lovel=1
lpc=oHYEQeU0dsHQglNBUJ8nwWkpIkG0eu3AQ16UQNdoRcBvJfc/Qkigvw+Ozz/VJ8m/dgVSPxijyz93heC/pMNxvWJZhT51F7O9Cvs8QOzcj8AHIHhAEztnwLmjYUDV+IW/
lpc_rms=-26.22
pitch_keycenter=E5
sample=Solocello_tenuto_eighth_FF_E5.opus
</region>

<region>
hikey=G2
hivel=127
lokey=F#2
lovel=1
lpc=UAuhQix9R8PAYitD7I6WwpAsSkIFTwvCKNKOQCoKP8CIuyhBPt4swbJDnkGtfMzB+Mm3QJH6SUHNBXW9eXYnwZPUmj4c+gY/RemCQclQecGvTEs/aZuuPrLg/7/fSFtA
lpc_rms=-20.93
pitch_keycenter=F#2
sample=Solocello_tenuto_eighth_FF_F#2.opus
</region>

<region>
hikey=G3
hivel=127
lokey=F#3
lovel=1
lpc=IDAkQux1wMIQmJhCm0sDwjIh/EGOV/7B1O5nQV9olMCsyuhABwU9wVTGB0HO+NM/wgYuwSY0XEFv7fHADrwlv8vKTUACaJA/oYWzP2IkNsHNFClBCXUOwFUGx78QfGM/
lpc_rms=-21.63
pitch_keycenter=F#3
sample=Solocello_tenuto_eighth_FF_F#3.opus
</region>

<region>
hikey=G4
hivel=127
lokey=F#4
lovel=1
lpc=tpcjQaMxssHtS5dBw0M1wbnNKEFM5iTBta3oQC9ixMBOn+9AL9ixwAYGEUA7U+e/ghGvPRloIkB27UnAYZUxQH4aGcCCWwlAXFYUv1BYD78cw6a9ySztPboGID+vo4a+
lpc_rms=-26.09
pitch_keycenter=F#4
sample=Solocello_tenuto_eighth_FF_F#4.opus
</region>

<region>
hikey=B6
hivel=127
lokey=F#5
lovel=1
lpc=/BkMQWxoW8EFPw9BdNrBwEj9AEF6tDrAO4j+v4oYrD9UD6y9L1YDQNfGtr8PqVY/WO6Bvw/+I0D7eHu/1JaWPuY8nb+YXKY/RSU3P3SPnj92Us+/1q+QPyy7BcCF5jNA
lpc_rms=-26.89
pitch_keycenter=F#5
sample=Solocello_tenuto_eighth_FF_F#5.opus
</region>

<region>
hikey=A2
hivel=127
lokey=G#2
lovel=1
lpc=9IzXQoeEh8MxbmpDpuTewl8NsUKqmnfC2HtIQbMfD8GxZ2VBNxyhQJfxccF+T2k/9bldwbe2NkIkBAXCv5lzQfNht8GD65VBVE6uQGp2gMG06fJAR/TIwH9T9UBNJzvA
lpc_rms=-21.69
pitch_keycenter=G#2
sample=Solocello_tenuto_eighth_FF_G#2.opus
</region>

<region>
hikey=A3
hivel=127
lokey=G#3
lovel=1
lpc=RV/zQYNQkMKBsGtCl2fFwWQtqkH8atTBooKaQejRFMFC9elAhyMqweGZIUFa9NG/28BDwaCBm0HGpDrBnAe5P9v6kL4SBKxAuSWTwFlYZcAGsL5Ah4djv6GVGsDTyKw/
lpc_rms=-23.91
pitch_keycenter=G#3
sample=Solocello_tenuto_eighth_FF_G#3.opus
</region>

<region>
hikey=A4
hivel=127
lokey=G#4
lovel=1
lpc=bvUBQY34isEcknZB1+YjwSMcD0HnMgzB/OvyQEdsiMA1AfE/vDr/v4+BHUCKwQnAg+EeP4EcM75nkU8/tkiavsdrM72TEaU8EXxJP0UvxL/fgyg/nKVKPocpQT+8I2G/
lpc_rms=-28.10
pitch_keycenter=G#4
sample=Solocello_tenuto_eighth_FF_G#4.opus
</region>
</group>